<svg width="24" height="24" viewBox="0 0 24 24" fill="none" xmlns="http://www.w3.org/2000/svg">
<circle cx="12" cy="12" r="9.65" fill="#FFDC83" stroke="#4C1101" stroke-width="0.7"/>
<g opacity="0.6">
<path d="M8.23077 6.85886C8.23077 6.85886 6.46254 6.05068 5.53846 6.85998C4.46154 7.80314 5.53846 9.61776 5.53846 9.61776C5.97845 8.47619 6.77796 7.36486 8.23077 6.85886Z" fill="#B87734"/>
<path d="M18.4615 6.86378C17.5375 6.05471 15.7692 6.86267 15.7692 6.86267C17.222 7.36852 18.0216 8.47953 18.4615 9.62079C18.4615 9.62079 19.5385 7.80667 18.4615 6.86378Z" fill="#B87734"/>
<path d="M12 20.5L15.2308 18.4714V16.4428L16.3077 17.9572L18.4615 14.9143L17.3846 11.8786L19 12.8929C19 12.4594 19 11.0175 18.4615 9.62079C18.0216 8.47953 17.222 7.36852 15.7692 6.86267C14.8206 6.53236 13.5934 6.46008 12.0058 6.8059L12 6.80336C10.4096 6.45599 9.18058 6.52806 8.23077 6.85886C6.77796 7.36486 5.97845 8.47619 5.53846 9.61776C5 11.0148 5 12.4572 5 12.8908L6.61538 11.8762L5.53846 14.9128L7.69231 17.9565L8.76923 16.4417V18.4709L12 20.5Z" fill="#B87734"/>
<path d="M15.7692 6.86267C15.7692 6.86267 17.5375 6.05471 18.4615 6.86378C19.5385 7.80667 18.4615 9.62079 18.4615 9.62079M15.7692 6.86267C17.222 7.36852 18.0216 8.47953 18.4615 9.62079M15.7692 6.86267C14.8206 6.53236 13.5934 6.46008 12.0058 6.8059M12 6.80718L12.0058 6.8059M18.4615 9.62079C19 11.0175 19 12.4594 19 12.8929L17.3846 11.8786L18.4615 14.9143L16.3077 17.9572L15.2308 16.4428V18.4714L12 20.5L8.76923 18.4709V16.4417L7.69231 17.9565L5.53846 14.9128L6.61538 11.8762L5 12.8908C5 12.4572 5 11.0148 5.53846 9.61776M8.23077 6.85886C9.18058 6.52806 10.4096 6.45599 12 6.80336L12.0058 6.8059M8.23077 6.85886C8.23077 6.85886 6.46254 6.05068 5.53846 6.85998C4.46154 7.80314 5.53846 9.61776 5.53846 9.61776M8.23077 6.85886C6.77796 7.36486 5.97845 8.47619 5.53846 9.61776" stroke="#4C1101" stroke-width="0.8" stroke-linecap="round" stroke-linejoin="round"/>
<path d="M12 9.83459C12 9.83459 14.1539 10.3416 14.1539 8.82031C16.3077 9.32745 16.3077 12.3703 14.1539 12.8774C14.1539 14.2019 13.854 14.891 13.4781 15.2345C13.4781 16.9345 13.4781 16.9345 12 16.9345C10.5219 16.9345 10.5219 16.9345 10.5219 15.2345C10.146 14.891 9.84616 14.2019 9.84616 12.8774C7.69231 12.3703 7.69231 9.32745 9.84616 8.82031C9.84616 10.3416 12 9.83459 12 9.83459Z" fill="#FCB54B"/>
<path d="M13.4781 15.2345C13.854 14.891 14.1539 14.2019 14.1539 12.8774C16.3077 12.3703 16.3077 9.32745 14.1539 8.82031C14.1539 10.3416 12 9.83459 12 9.83459C12 9.83459 9.84616 10.3416 9.84616 8.82031C7.69231 9.32745 7.69231 12.3703 9.84616 12.8774C9.84616 14.2019 10.146 14.891 10.5219 15.2345M13.4781 15.2345C12.8465 15.8118 12 15.4131 12 15.4131C12 15.4131 11.1535 15.8118 10.5219 15.2345M13.4781 15.2345C13.4781 16.9345 13.4781 16.9345 12 16.9345C10.5219 16.9345 10.5219 16.9345 10.5219 15.2345M10.3846 11.3587C10.3846 11.3587 10.5 10.9998 10.9231 11.3587M13.6154 11.3587C13.6154 11.3587 13.5 11 13.0769 11.3587M12 15.4159V14.4016M12 14.4016C12 13.9994 12.5385 13.8944 12.5385 13.8944M12 14.4016C12 13.9994 11.4615 13.8944 11.4615 13.8944" stroke="#4C1101" stroke-width="0.6" stroke-linecap="round" stroke-linejoin="round"/>
</g>
<circle cx="12" cy="12" r="10" fill="black" fill-opacity="0.4"/>
</svg>
