<svg width="24" height="24" viewBox="0 0 24 24" fill="none" xmlns="http://www.w3.org/2000/svg">
<g filter="url(#filter0_i_616_716)">
<path d="M3.9 5.84615C2.7 5.84615 2.7 4 3.9 4H12.3C13.5 4 13.5 5.84615 12.3 5.84615M5.09999 18.1538H11.1M4.49999 20H11.7M5.69999 5.84615H10.5M10.5 16.3077H5.69999" stroke="#AFA39E" stroke-linecap="round" stroke-linejoin="round"/>
<path d="M14.7 18.1547H20.4M14.1 20.0009H21M19.8 16.3086H15.3" stroke="#AFA39E" stroke-linecap="round" stroke-linejoin="round"/>
<path d="M6.3 5.84766V16.3092M9.9 5.84766V8.92458M9.9 16.3092V10.3943M7.5 5.84766V16.3092M8.7 5.84766V16.3092" stroke="#AFA39E" stroke-width="0.5" stroke-linecap="round" stroke-linejoin="round"/>
<path d="M15.6 16.3086V12.0009M16.8 16.3086V10.1547L19.2 12.0009V16.3086M18 16.3086V11.0778M19.2 10.1547L18 9.53936L18.6 8.30859L19.2 10.1547ZM16.2 8.92398L16.8 8.30859V8.92398H16.2Z" stroke="#AFA39E" stroke-width="0.5" stroke-linecap="round" stroke-linejoin="round"/>
</g>
<defs>
<filter id="filter0_i_616_716" x="2.5" y="3.5" width="19" height="18" filterUnits="userSpaceOnUse" color-interpolation-filters="sRGB">
<feFlood flood-opacity="0" result="BackgroundImageFix"/>
<feBlend mode="normal" in="SourceGraphic" in2="BackgroundImageFix" result="shape"/>
<feColorMatrix in="SourceAlpha" type="matrix" values="0 0 0 0 0 0 0 0 0 0 0 0 0 0 0 0 0 0 127 0" result="hardAlpha"/>
<feOffset dy="1"/>
<feGaussianBlur stdDeviation="0.5"/>
<feComposite in2="hardAlpha" operator="arithmetic" k2="-1" k3="1"/>
<feColorMatrix type="matrix" values="0 0 0 0 0 0 0 0 0 0 0 0 0 0 0 0 0 0 0.4 0"/>
<feBlend mode="normal" in2="shape" result="effect1_innerShadow_616_716"/>
</filter>
</defs>
</svg>
