<svg width="24" height="24" viewBox="0 0 24 24" fill="none" xmlns="http://www.w3.org/2000/svg">
<g filter="url(#filter0_i_615_634)">
<path d="M6.95156 12H4.90313L4.90312 8.78571C2.33604 8.78571 2.07671 3 5.92732 3C9.77799 3 9.51867 8.78571 6.95156 8.78571V12Z" stroke="#0F6A37" stroke-linejoin="round"/>
<path d="M12.9516 21H10.9031L10.9031 17.7857C8.33604 17.7857 8.07671 12 11.9273 12C15.778 12 15.5187 17.7857 12.9516 17.7857V21Z" stroke="#0F6A37" stroke-linejoin="round"/>
<path d="M19.0969 12H17.0484L17.0484 8.78571C14.4813 8.78571 14.222 3 18.0726 3C21.9233 3 21.664 8.78571 19.0969 8.78571V12Z" stroke="#0F6A37" stroke-linejoin="round"/>
</g>
<defs>
<filter id="filter0_i_615_634" x="2.50002" y="2.5" width="19" height="20" filterUnits="userSpaceOnUse" color-interpolation-filters="sRGB">
<feFlood flood-opacity="0" result="BackgroundImageFix"/>
<feBlend mode="normal" in="SourceGraphic" in2="BackgroundImageFix" result="shape"/>
<feColorMatrix in="SourceAlpha" type="matrix" values="0 0 0 0 0 0 0 0 0 0 0 0 0 0 0 0 0 0 127 0" result="hardAlpha"/>
<feOffset dy="1"/>
<feGaussianBlur stdDeviation="0.5"/>
<feComposite in2="hardAlpha" operator="arithmetic" k2="-1" k3="1"/>
<feColorMatrix type="matrix" values="0 0 0 0 0 0 0 0 0 0 0 0 0 0 0 0 0 0 0.4 0"/>
<feBlend mode="normal" in2="shape" result="effect1_innerShadow_615_634"/>
</filter>
</defs>
</svg>
